PathFileType	4	(X/Y/Z)	1H_nor_slow_right.trc
DataRate	CameraRate	NumFrames	NumMarkers	Units	OrigDataRate	OrigDataStartFrame	OrigNumFrames
250.00	250.00	18	18	mm	250.00	15920	25471
Frame#	Time	c7	r_should	l_should	clavicle	r_upa	r_elb_l	r_elb_m	r_low	r_wri_l	r_wri_m	r_met	l_upa	l_elb_l	l_elb_m	l_low	l_wri_l	l_wri_m	l_met
	X1	Y1	Z1	X2	Y2	Z2	X3	Y3	Z3	X4	Y4	Z4	X5	Y5	Z5	X6	Y6	Z6	X7	Y7	Z7	X8	Y8	Z8	X9	Y9	Z9	X10	Y10	Z10	X11	Y11	Z11	X12	Y12	Z12	X13	Y13	Z13	X14	Y14	Z14	X15	Y15	Z15	X16	Y16	Z16	X17	Y17	Z17	X18	Y18	Z18
15920	63.67600	1171.05042	1429.84644	174.89218	1229.63733	1374.91406	323.06421	1170.46716	1366.29834	-6.62323	1281.91565	1290.76135	151.97832	1273.91907	1171.38635	391.79730	1273.07446	1121.52258	410.75742	1208.37048	1060.03906	369.31482	1336.20679	1111.42578	326.15430	1381.50342	1133.88159	233.80518	1370.58911	1056.51538	221.77193	1446.94812	1123.61963	188.66486	1163.83997	1147.20984	-64.52908	1175.06226	1042.09192	-81.64897	1134.39893	1028.88464	3.57871	1207.12878	931.16858	-69.60332	1257.18005	821.29932	-21.26948	1183.80798	802.70209	-45.58780	1258.25879	738.02759	-61.83353
15921	63.68000	1171.12610	1429.85132	174.89618	1229.76453	1374.89600	323.05753	1170.49182	1366.31042	-6.62506	1281.97083	1290.76074	151.94830	1273.98669	1171.35706	391.78998	1273.13062	1121.48291	410.76987	1208.37097	1060.02649	369.36816	1336.23792	1111.26404	326.14322	1381.57935	1133.58020	233.74440	1370.59875	1056.20264	221.81779	1447.00061	1123.23157	188.65491	1163.83032	1147.21851	-64.52444	1175.04810	1042.10425	-81.64557	1134.40479	1028.87219	3.58681	1207.10730	931.17352	-69.60078	1257.34973	821.60577	-21.28213	1183.79358	802.70258	-45.57195	1258.24805	738.03125	-61.85264
15922	63.68400	1171.20178	1429.85376	174.91107	1229.89233	1374.87659	323.05432	1170.51721	1366.32239	-6.62850	1282.02734	1290.75781	151.92921	1274.05286	1171.32544	391.78809	1273.17163	1121.44824	410.77472	1208.37061	1060.01880	369.42786	1336.26514	1111.10205	326.14301	1381.64380	1133.28870	233.69566	1370.61292	1055.89832	221.85454	1447.05493	1122.83423	188.63518	1163.82166	1147.22437	-64.51562	1175.03577	1042.11304	-81.63873	1134.41382	1028.86499	3.60066	1207.09265	931.17462	-69.59966	1257.08557	821.17072	-21.32064	1183.78333	802.70282	-45.55535	1258.23389	738.03571	-61.87009
15923	63.68800	1171.27905	1429.85034	174.93031	1230.02844	1374.85437	323.04761	1170.54370	1366.33313	-6.64039	1282.08459	1290.75659	151.90465	1274.11926	1171.30066	391.78741	1273.21765	1121.40820	410.77838	1208.36853	1060.01709	369.48212	1336.29089	1110.94031	326.14368	1381.71057	1133.01953	233.65434	1370.63660	1055.59583	221.91570	1447.11047	1122.43909	188.60970	1163.81409	1147.22900	-64.51245	1175.01917	1042.11902	-81.63760	1134.42883	1028.85815	3.62674	1207.07397	931.18024	-69.60942	1257.02014	821.06525	-21.33174	1183.76660	802.69403	-45.53371	1258.21216	738.04242	-61.88536
15924	63.69200	1171.35571	1429.84473	174.94034	1230.16382	1374.83704	323.04025	1170.56750	1366.34558	-6.64791	1282.14148	1290.74878	151.88057	1274.18018	1171.27490	391.78629	1273.26050	1121.35999	410.78174	1208.37793	1060.01440	369.53445	1336.32007	1110.77429	326.13815	1381.78467	1132.74292	233.61311	1370.68201	1055.29163	221.99773	1447.16089	1122.05005	188.59186	1163.80249	1147.23340	-64.51241	1174.99988	1042.11963	-81.63401	1134.43237	1028.85583	3.63761	1207.05273	931.18335	-69.62186	1257.00024	821.04456	-21.35441	1183.75305	802.69550	-45.52396	1258.18823	738.04480	-61.90253
15925	63.69600	1171.50256	1429.42004	174.47108	1230.52515	1374.38464	323.05652	1170.59619	1366.35217	-6.67295	1282.19861	1290.73889	151.85602	1274.23865	1171.24036	391.78906	1273.29846	1121.30969	410.78619	1208.39307	1060.00708	369.58582	1336.35205	1110.61194	326.14072	1381.86548	1132.46350	233.59047	1370.73047	1054.99658	222.07777	1447.20520	1121.66382	188.56508	1163.78491	1147.23010	-64.51644	1174.98328	1042.11560	-81.63546	1134.43372	1028.85815	3.64983	1207.02869	931.17896	-69.62988	1256.98816	821.02887	-21.38507	1183.74353	802.69238	-45.52491	1258.16248	738.03833	-61.92626
15926	63.70000	1171.73230	1428.47327	173.40144	1231.16553	1373.38452	323.10611	1170.61462	1366.34863	-6.68479	1282.25073	1290.71826	151.83064	1274.29626	1171.20520	391.79605	1273.33667	1121.25586	410.79059	1208.40576	1059.99426	369.63583	1336.38428	1110.44690	326.14453	1381.95703	1132.18567	233.55977	1370.73853	1054.70300	222.11063	1447.24463	1121.28186	188.54091	1163.76575	1147.22180	-64.51450	1174.96289	1042.10852	-81.63539	1134.43469	1028.84998	3.66435	1207.00830	931.17084	-69.64199	1256.97876	821.01819	-21.40852	1183.72693	802.68134	-45.52929	1258.13342	738.02472	-61.95514
15927	63.70400	1171.84106	1428.22864	173.12108	1231.41248	1373.11987	323.11023	1170.62378	1366.32605	-6.68293	1282.29688	1290.69446	151.80112	1274.34729	1171.16760	391.79248	1273.36682	1121.20020	410.78729	1208.41675	1059.98157	369.67474	1336.41846	1110.27612	326.14456	1382.03857	1131.89404	233.51326	1370.73743	1054.39050	222.13065	1447.28577	1120.90039	188.51680	1163.74902	1147.21167	-64.51456	1174.93616	1042.09814	-81.62897	1134.43408	1028.84790	3.68530	1206.97571	931.15967	-69.66709	1257.12134	821.26306	-21.41664	1183.70557	802.65833	-45.53066	1258.09656	738.00836	-61.98379
15928	63.70800	1171.92004	1428.15735	173.04282	1231.55872	1373.04736	323.10428	1170.64856	1366.30627	-6.71088	1282.34070	1290.66968	151.76549	1274.39355	1171.12964	391.78497	1273.40100	1121.14429	410.78461	1208.42273	1059.97852	369.72195	1336.45447	1110.10620	326.13812	1382.12036	1131.59314	233.46526	1370.72961	1054.05725	222.16533	1447.32874	1120.52051	188.49113	1163.72876	1147.19775	-64.52163	1174.90527	1042.08484	-81.63703	1134.43823	1028.83728	3.69104	1206.94690	931.13965	-69.68196	1257.45422	821.82947	-21.39831	1183.67432	802.64032	-45.54441	1258.05310	737.99353	-62.01550
15929	63.71200	1171.98706	1428.13904	173.01207	1231.68115	1373.01892	323.09210	1170.67480	1366.29053	-6.73419	1282.38416	1290.65063	151.73184	1274.43677	1171.10657	391.78458	1273.43762	1121.09314	410.79379	1208.42480	1059.97913	369.76535	1336.49756	1109.94812	326.14636	1382.19739	1131.30920	233.42567	1370.73279	1053.72095	222.22153	1447.37976	1120.14624	188.46500	1163.70764	1147.18823	-64.52955	1174.87329	1042.08081	-81.64707	1134.42822	1028.83704	3.69165	1206.91077	931.12134	-69.70190	1257.36853	821.69464	-21.42592	1183.64209	802.62482	-45.55409	1258.00830	737.97931	-62.04545
15930	63.71600	1172.04956	1428.13147	172.99037	1231.79028	1373.00391	323.08002	1170.71277	1366.28967	-6.78207	1282.43103	1290.63416	151.70201	1274.48230	1171.08533	391.79059	1273.47522	1121.03943	410.80240	1208.43555	1059.97705	369.80969	1336.53735	1109.79297	326.16479	1382.27209	1131.04346	233.38208	1370.74182	1053.40027	222.28554	1447.42896	1119.77441	188.44179	1163.69019	1147.17358	-64.53181	1174.84253	1042.06873	-81.65810	1134.42554	1028.84216	3.69865	1206.87683	931.10925	-69.73158	1257.01880	821.12427	-21.48848	1183.61804	802.61963	-45.57771	1257.96362	737.96814	-62.07075
15931	63.72000	1172.11218	1428.12549	172.97417	1231.89697	1372.99438	323.06351	1170.74512	1366.28601	-6.80380	1282.48340	1290.62390	151.67947	1274.53015	1171.06628	391.80148	1273.51660	1120.99390	410.81668	1208.44824	1059.97705	369.85141	1336.57947	1109.63867	326.18033	1382.34277	1130.79041	233.34102	1370.77014	1053.09973	222.38136	1447.47778	1119.39819	188.42593	1163.68091	1147.16174	-64.53584	1174.81946	1042.05798	-81.66595	1134.41162	1028.84766	3.70797	1206.84851	931.09229	-69.74965	1256.92310	820.96814	-21.51495	1183.59570	802.62555	-45.60222	1257.92017	737.95404	-62.09449
15932	63.72400	1172.17932	1428.13245	172.95961	1231.99719	1372.99365	323.05276	1170.78967	1366.29248	-6.83461	1282.53955	1290.61707	151.65817	1274.58142	1171.05457	391.81491	1273.56238	1120.95056	410.82446	1208.46411	1059.97791	369.89661	1336.62378	1109.48682	326.19095	1382.40527	1130.52576	233.30531	1370.81140	1052.79492	222.48007	1447.51733	1119.03308	188.40680	1163.66821	1147.16455	-64.54010	1174.80396	1042.05640	-81.67371	1134.40515	1028.85535	3.70321	1206.82312	931.08429	-69.76066	1256.88867	820.92395	-21.53969	1183.56262	802.62604	-45.62783	1257.87659	737.94025	-62.11600
15933	63.72800	1172.24609	1428.14160	172.94708	1232.10583	1372.99341	323.03851	1170.82825	1366.29297	-6.84963	1282.59363	1290.61377	151.64058	1274.63525	1171.05005	391.82449	1273.61755	1120.91052	410.83121	1208.47668	1059.98291	369.94617	1336.67249	1109.33521	326.19708	1382.15527	1130.12524	233.18483	1370.84204	1052.49866	222.57410	1447.55420	1118.68958	188.38739	1163.65930	1147.16833	-64.54799	1174.78455	1042.06140	-81.68933	1134.38586	1028.86511	3.70071	1206.79504	931.08154	-69.77394	1256.87170	820.90399	-21.56181	1183.52649	802.61578	-45.63068	1257.83398	737.93518	-62.13659
15934	63.73200	1172.31262	1428.15308	172.94461	1232.21265	1372.98950	323.02814	1170.87402	1366.30847	-6.87828	1282.64941	1290.61182	151.61650	1274.69629	1171.04102	391.83685	1273.67664	1120.87964	410.85785	1208.49231	1059.99634	370.00970	1336.71912	1109.18787	326.20847	1381.51770	1129.56519	232.95152	1370.84961	1052.20654	222.62352	1447.59253	1118.35291	188.36456	1163.65686	1147.16821	-64.55193	1174.77319	1042.06067	-81.68840	1134.37695	1028.86829	3.70902	1206.77271	931.06921	-69.77957	1256.85901	820.89044	-21.58210	1183.48792	802.63007	-45.65548	1257.79333	737.93085	-62.15488
15935	63.73600	1172.38159	1428.16602	172.94296	1232.31238	1372.98682	323.01526	1170.91907	1366.32275	-6.89395	1282.70679	1290.61536	151.59615	1274.76123	1171.03577	391.84799	1273.73572	1120.85828	410.89111	1208.50952	1060.01270	370.07959	1336.76660	1109.05212	326.22382	1381.38733	1129.21631	232.85214	1370.87158	1051.91187	222.66106	1447.63306	1118.01196	188.33907	1163.66040	1147.17102	-64.54943	1174.76282	1042.06799	-81.69443	1134.38440	1028.87573	3.71140	1206.75256	931.06042	-69.78915	1256.84070	820.88672	-21.60683	1183.44324	802.62897	-45.67033	1257.74646	737.92401	-62.17385
15936	63.74000	1172.45361	1428.17908	172.93874	1232.40881	1372.98718	323.00983	1170.95837	1366.32336	-6.89289	1282.76562	1290.60938	151.57481	1274.83069	1171.03589	391.86554	1273.79761	1120.84363	410.91763	1208.52429	1060.02747	370.15015	1336.81873	1108.90869	326.23367	1381.39587	1128.91321	232.79790	1370.91150	1051.62024	222.72319	1447.68408	1117.66528	188.31735	1163.66980	1147.17249	-64.55305	1174.75610	1042.06360	-81.70040	1134.39563	1028.88000	3.71013	1206.72729	931.05634	-69.79497	1256.81982	820.88385	-21.63893	1183.40808	802.62939	-45.67302	1257.69849	737.91077	-62.19062
15937	63.74400	1172.52332	1428.18787	172.93077	1232.50684	1372.98425	323.00140	1170.99231	1366.32019	-6.89464	1282.82495	1290.60034	151.55469	1274.89954	1171.03455	391.87961	1273.86584	1120.82861	410.94019	1208.53699	1060.04016	370.21890	1336.87854	1108.75610	326.23752	1381.36084	1128.73792	232.93404	1370.94263	1051.32153	222.77382	1447.73035	1117.30640	188.29515	1163.67615	1147.17432	-64.55995	1174.75330	1042.05408	-81.70606	1134.39441	1028.87939	3.70233	1206.70618	931.04724	-69.80717	1256.80286	820.86554	-21.65410	1183.37415	802.63080	-45.67999	1257.65417	737.89093	-62.20331
